<?xml version="1.0" encoding="UTF-8"?>
<svg version="1.1" viewBox="0 0 800 800" width="1280" height="1280" xmlns="http://www.w3.org/2000/svg">
<path transform="translate(0)" d="m0 0h800v800h-800z" fill="#FEFDFD"/>
<path transform="translate(0)" d="m0 0h800v800h-800zm386 39-49 7-23 6-31 10-18 6-20 10-22 12-18 10-13 10-15 13-17 14-13 12-11 12-11 14-9 10-9 11-8 13-12 22-13 23-7 17-15 48-5 22-6 41-1 11v28l6 45 4 20 12 38 8 24 13 25 10 19 10 17 11 14 14 17 12 14 9 10 13 12 10 8 26 22 21 12 24 13 21 11 21 7 23 7 22 7 23 4 30 4 15 1h15l26-2 34-5 17-4 35-11 26-9 19-10 12-6 16-9 16-10 10-8 11-9 16-13 11-9 9-9 9-11 12-14 11-14 9-13 14-25 10-19 8-16 13-40 7-26 7-44 2-22v-24l-4-31-6-32-7-25-12-36-11-23-12-22-13-22-13-16-11-14h-2l-2-4-11-13-2-3h-2l-2-4-14-12-11-9-17-14-14-10-27-15-22-12-16-7-37-12-20-6-36-6-23-3z" fill="#FEFDFD"/>
<path transform="translate(399,193)" d="m0 0h17l49 2 38 4 30 4 2 2 4 24 5 14 6 9 8 8 14 8 10 4 8 2-2 21-1 14v14l-3 57-4 40-5 30-7 28-7 20-6 14-11 20-10 15-11 14-11 12-20 20-10 8-16 12-23 15-24 14-7 4-5-1-16-8-19-10-23-15-13-10-11-9-7-6-7-8-7-7-11-14-12-16-13-23-8-16-8-21-6-18-6-24-5-28-3-24-2-33-2-79 1-3 17-5 15-8 8-9 6-10 5-16 3-21 3-2 40-5 18-2z" fill="#FDFCFC"/>
<path transform="translate(394,143)" d="m0 0h27l27 3 20 4 31 9 19 7 21 12 16 9 9 7 17 14 12 10 7 8 11 13 13 16 9 15 10 18 9 19 11 33 5 23 3 22 1 14v16l-2 22-4 22-9 31-6 17-10 21-8 14-6 11-9 11-11 13-12 14-9 8-11 9-13 11-13 8-24 13-17 8-31 10-19 5-29 4-12 1h-19l-33-4-18-4-27-8-16-6-19-10-11-6-12-7-13-10-14-12-8-7-11-11-7-8-13-16-10-15-12-23-8-16-9-27-6-23-4-26-1-10v-28l3-26 6-25 12-36 10-20 12-21 10-14 11-13 9-11 12-12 11-9 13-11 15-10 27-15 19-8 35-10 18-4zm5 50-55 2-51 6-9 2-1 1-3 21-5 16-9 14-8 7-15 7-14 4-1 3 2 79 2 33 5 36 6 29 7 24 8 21 7 16 13 23 13 19 12 14 7 8 12 12 11 10 20 15 26 16 17 9 13 6 5-1 24-14 16-10 16-11 13-10 13-11 24-24 11-14 10-14 11-19 10-22 7-21 6-25 5-30 4-40 3-59v-12l2-28 1-7-13-4-14-7-8-6-7-7-7-14-4-18-2-13-2-2-46-6-22-2-49-2z" fill="#FEFDFD"/>
<path transform="translate(399,193)" d="m0 0h17l49 2 38 4 30 4 2 2 4 24 5 14 6 9 8 8 14 8 10 4 8 2-2 21-1 14v14l-3 57-4 40-5 30-7 28-7 20-6 14-11 20-10 15-11 14-11 12-20 20-10 8-16 12-23 15-24 14-7 4-5-1-16-8-19-10-23-15-13-10-11-9-7-6-7-8-7-7-11-14-12-16-13-23-8-16-8-21-6-18-6-24-5-28-3-24-2-33-2-79 1-3 17-5 15-8 8-9 6-10 5-16 3-21 3-2 40-5 18-2zm3 43-40 2-29 3-26 4-1 2-1 15-4 12-6 10-10 9-11 5-10 4v15l2 33 1 27 1 13h3l7-16 9-10 14-9 8-3h3l-7 2-1 3-3 3-4 3-11 8-11 14-4 8-2 6v8l5 5 14 11 10 5 11 4 6 1 5-17 1-7-12-5-9-4-4 1-2 16v-20l-6-4v-2l4 2 4 1 1-1 3-15 4-8 5-5 4-3-6 11 8 3 9 1-2 1v2l-12-3-1-1h-5l-3 7-3 13 9 4 10 4h3l4-20 1-3 1 2h3l-2 3-2 10v8l6 2 5 1h10l4-5 1 7 11-4 9-5-1-7-5-10-3-5h-2v-3h-2v-5h2l6 4v5l5 5 2 3v-2h2l4 17-1 17-7 18-2 3 1 4 16 15 17 17 1 3-9 2h-10l-7-17-8-12-3-6-4 2-4 5-3 2 1 4 7 10 1 4-12-4-4-2v-6l-14 3-3 1 16-7 1-1v-7l-1-2 3 3 5-1 10-12 1-6-10 4-13 4-8 11-7 8-4 5-2 1 2-5 10-13 4-6-1-2h-9l-15-2-16-5-10-5-11-9-6-7h-1v8l6 33 5 17 7 19 12 23 11 16 9 11 10 11 8 7 10 9 16 12 17 11 21 12 3 2h5l16-8 18-10 19-13 13-11 8-7 13-14 11-14 9-14 13-25 9-25 7-28 4-24 3-32 1-20 1-56-16-5-8-4-9-9-7-14-3-16-1-8-2-1-48-6-35-2z" fill="#292F8F"/>
<path transform="translate(386,39)" d="m0 0h40l49 7 17 4 47 15 15 6 23 12 23 13 16 10 13 11 14 11 10 9 11 9 1 3h2l9 11 6 7v2h2l8 10 13 16 9 14 14 25 14 27 7 19 9 29 6 22 6 36 3 23v24l-3 29-6 37-5 20-10 31-6 17-8 16-12 23-14 24-11 14-18 22-13 15-8 8-9 7-17 14-11 9-14 10-16 9-19 11-16 8-11 5-56 18-22 5-39 5-16 1h-15l-23-2-35-5-17-4-34-11-22-7-21-10-22-12-21-12-11-8-11-10-10-8-13-11-12-11-9-10-9-11-12-14-10-13-9-14-12-22-6-12-10-19-8-25-12-39-5-30-4-31v-28l3-25 5-33 5-19 10-32 7-21 8-16 13-24 13-23 8-10 10-11 11-14 13-15 9-9 11-9 28-24 13-9 16-9 34-18 11-5 24-8 36-11 22-4zm-6 13-34 5-21 5-31 9-24 8-21 10-16 9-20 11-11 8-16 13-15 13-14 12-13 14-9 11-11 13-12 17-9 15-14 26-8 16-6 16-13 42-5 25-3 25-1 13v40l4 34 5 25 12 39 6 16 9 19 10 19 14 24 11 14 11 13 9 11 9 10 6 7 11 9 13 11 11 9 13 10 20 12 12 6 20 11 20 8 35 11 23 6 37 6 12 1h33l24-2 37-6 35-10 27-9 25-12 18-10 16-9 14-10 13-11 11-9 10-9 8-7 7-7 8-10 11-13 9-11 10-13 13-24 9-16 8-16 6-16 13-44 5-23 4-31v-47l-4-33-5-25-15-49-7-16-13-25-13-23-7-11-11-13-9-11-14-17-6-7-11-9-9-8-10-8-13-11-10-7-25-14-24-13-18-8-53-16-21-4-33-4z" fill="#F1212B"/>
<path transform="translate(396,131)" d="m0 0h26l26 3 18 3 24 7 26 9 22 11 24 14 14 11 22 18 11 11 18 22 9 12 9 15 14 26 8 22 10 35 6 35 1 7v24l-5 38-5 21-12 36-4 9-15 28-9 14-13 16-11 13-9 10-10 9-11 9-15 12-21 12-20 11-20 8-32 10-25 5-16 2h-46l-28-4-21-6-33-11-17-8-23-13-11-7-17-14-13-11-10-9-9-10-9-11-12-15-9-15-8-16-9-17-13-40-5-21-4-32v-27l5-37 5-19 10-32 9-19 12-21 6-11 10-13 9-11 12-14 11-11 11-9 9-8 11-8 13-8 26-14 19-8 28-9 20-5 22-3zm-2 12-31 4-34 9-21 7-17 8-24 14-13 9-13 11-14 12-11 11-9 11-12 15-9 14-14 26-7 15-12 38-4 18-3 26v28l4 31 5 21 9 29 7 16 10 19 8 14 12 16 11 13 12 13 9 9 11 9 15 12 13 8 10 6 16 8 16 7 29 9 16 4 28 4 11 1h19l27-3 18-3 31-9 20-7 22-11 21-12 13-10 14-12 11-9 11-12 9-11 10-12 8-12 8-16 8-15 6-15 9-29 5-20 3-22 1-13v-16l-2-24-5-27-7-24-8-22-11-22-13-22-11-14-13-15-7-8-5-5-12-11-20-16-17-10-22-12-9-4-24-8-26-7-27-4-12-1z" fill="#F1212B"/>
<path transform="translate(403,300)" d="m0 0h7l9 3 9 2v3l-8 8-8 7-13 12-8 7-16 15-7 8v1l3 9 3 10-2 2-2-5h-2l-2-5-1-4-6-4-1 3v3h2v3h2l3 5 5 10 1 7-16 8-4 1-1-7-4 5h-10l-10-2-1-1v-8l3-12 1-1h-4l-1-2-2 14-2 9-9-2-12-5-1-2 5-18 1-1h5l7 3 6 1 1-2 1-1-9-1-8-3 5-9v-2l-6 5-5 8-3 11-1 7-3 1-4-3h-2v2l6 4v20l2-16 4-1 11 5 10 4-2 10-4 14-12-3-14-6-11-9-8-6-1-2v-8l5-12 8-11 6-7 11-7 5-5 1-3 7-2v-2h22l14 5 11 7 4 3v-6l9-13 10-14 16-26z" fill="#13148F"/>
<path transform="translate(312,361)" d="m0 0 2 2-6 9 3 2 13 3 1-3-1 5-2 1-10-1-3-2h-5l-5 19 14 6 7 2 1-9 2-14h3l4 2-2 3-2 10v8l10 2h10l1-1 1-14 3-1 1 18 10-4 8-4-1-7-5-10-2-2v-3h-2v-3h-2l-1-5 2-2 8 6v5l5 5 3 1 4 11 1 10-1 13-7 18-2 3 1 4 15 14 18 18v3l-9 3h-10l-5-11-6-12-5-7-2-6-5 5h-2l-1 3-2 1 1 4 7 10 1 5-13-4-5-3v-5l-13 3-6 2-1-2 20-8v-9l3 1v2l5-2 10-13v-3l-9 4-13 4-9 13-7 7-3 4h-2l1-5 10-13 4-7h-9l-15-2-16-5-10-5-11-9-3-3 1-3 4 2 12 9 18 7 5 1 2-5 4-16v-2l-19-7-4-1-2 20-2-4v-20l-6-4 1-3 4 2 4 1 3-15 4-8 4-5z" fill="#272D8F"/>
<path transform="translate(478,272)" d="m0 0 4 2 10 9 14 11 2 1-1 3-28 15-25 13-19 10-26 14-16 9h-2l2-5 9-9 6-5 23-23 8-7 14-14 8-7 9-9 6-7z" fill="#F1212B"/>
<path transform="translate(541,337)" d="m0 0h2l1 11v21l-101 14-17 2h-13l4-3 20-8 37-13 50-18 13-5z" fill="#F1212B"/>
<path transform="translate(405,420)" d="m0 0 40 3 42 4 46 5-1 4-6 11-6 10-7-1-101-31-6-3z" fill="#F1212B"/>
<path transform="translate(308,357)" d="m0 0h4l-2 5-9 13-3 11-1 7-3 1-4-3h-2v2l6 4v20l2-16 4-1 11 5 10 4-2 10-4 14-12-3-14-6-11-9-8-6-1-2v-8l5-12 8-11 6-7 11-7z" fill="#FEFDFD"/>
<path transform="translate(477,385)" d="m0 0h7l-4 26-1 6-3 1-55-8-18-3-15-2-1-3 11-3 33-6z" fill="#F1212B"/>
<path transform="translate(458,330)" d="m0 0h3l4 6 11 15v4l-49 14-40 12-8 1 6-7 20-12 17-11 23-14z" fill="#F1212B"/>
<path transform="translate(439,528)" d="m0 0 35 1 2 2-1 8 1 9 2 5-5-1-6-4-1-12-4-1v11l-1 1h-11l-3-3-1-8h-4l-1 10-4 2-1-4v-10h-4l1 12-1 1h-7l1-2v-8h-2v8l-3-1-3-12h-4l-1 7v8l-3 1-10-1v-15l-9 3-1 15-5 1-5-5-2-3 1-2v-9l-3 3v16l-3 1-5-5v-12l-2-5 4-1h52z" fill="#12138F"/>
<path transform="translate(389,446)" d="m0 0 5 1 10 7 21 13 22 13 11 7 15 9 5 2-5 5-9 4-6 4-6-1-11-11-8-7-10-9-16-16-5-4-7-8-6-8z" fill="#F1212B"/>
<path transform="translate(378,426)" d="m0 0 25 7 36 9 23 7v3l-5 4-8 7-6 5-1 2-5-1-13-8-36-24-8-6-2-2z" fill="#F1212B"/>
<path transform="translate(403,300)" d="m0 0h7l9 3 9 2v3l-8 8-8 7-13 12-8 7-16 15-7 8h-3v-2h-2l1-6 14-19 12-19 9-14z" fill="#F1212B"/>
<path transform="translate(416,247)" d="m0 0h10l-5 9-14 22-13 21-7 11-14 23-5 6h-2l1-5 11-25 11-28 12-29 2-3z" fill="#F1212B"/>
<path transform="translate(182,598)" d="m0 0 9 1 8 6 4 5-2 4-17 17-9 7h-3l-8-9-3-6 1-8 6-9 10-7z" fill="#11128F"/>
<path transform="translate(105,444)" d="m0 0h11l4 5 4 16-1 4-6 2-26 4h-6l-2-5-1-5v-11l5-5 7-1 6 1z" fill="#10118F"/>
<path transform="translate(130,230)" d="m0 0 6 1 6 4 4 2 9 2 5 4 1 2-1 10-6 10-3 3-5-2-22-12-6-5 1-6 7-10z" fill="#12138F"/>
<path transform="translate(390,696)" d="m0 0h8l5 5 2 5 1 8v15l-3 9-5 4h-9l-5-6-2-7v-19l3-9z" fill="#292F8F"/>
<path transform="translate(442,78)" d="m0 0 15 1 9 4 2 5-1 8-5 6-2 1 3 9 2 10h-6l-3-3-5-14-5-2-1 15-3 1-5-1v-10l4-26z" fill="#13158F"/>
<path transform="translate(368,436)" d="m0 0 1 2-2 4 4 2 15 14 18 18v3l-9 3h-10l-5-11-6-12-5-7-2-6-5 5h-2l-1 3-2 1 1 4 7 10 1 5-13-4-5-3v-5l-13 3-6 2-1-2 20-8v-9l3 1v2l5-2 5-6 3-1z" fill="#F1212B"/>
<path transform="translate(688,241)" d="m0 0h5l8 16-1 7-4 5-5 2-11-1-9 13-5-1v-5l8-12 1-7-16 8-3-2 1-5 21-12z" fill="#12138F"/>
<path transform="translate(197,154)" d="m0 0 6 1 5 5 3 12 15 5v3l-3 3h-6l-11-4h-7l4 5 5 5 2 5-2 3-5-1-9-10-7-8-7-9 3-6 7-6z" fill="#11128F"/>
<path transform="translate(156,553)" d="m0 0 4 1 1 1v6l-8 14 2 4 12-7h5l1 4-9 7-15 10-7 5-4-2-6-7-3-6v-7l4-6 3-2h12l7-14z" fill="#11128F"/>
<path transform="translate(358,368)" d="m0 0 8 5 1 4 2 4 4 4h2l4 11 1 10-1 13-7 18-3 5h-2v-3l-5 5 2-5 3-7-1-4 5-10 1-11-15 5-7 1-2 12-2 2v-15l-3-2h2v-2h2l1-17 3-1 1 18 10-4 8-4-1-7-5-10-2-2v-3h-2v-3h-2l-1-5z" fill="#11128F"/>
<path transform="translate(364,696)" d="m0 0h7l5 3 2 5v9l-6 12-4 5v1l9 1 1 1v9h-23l-2-4 3-8 11-14 4-8-1-3-5 1-5 5-6-1 1-6 4-6z" fill="#12138F"/>
<path transform="translate(444,696)" d="m0 0h15l1 1v8l-1 1h-13l2 4 9 3 4 6v14l-4 6-5 3h-8l-5-4-2-3v-6l1-1h6l2 6 6-1 1-2v-10l-1-1h-7l-7 1v-9l3-14z" fill="#11128F"/>
<path transform="translate(439,528)" d="m0 0 35 1 2 2-1 8 1 9 2 5-5-1-6-4-1-12-4-1v11l-1 1h-11l-3-3-1-8h-4l-1 10-4 2-1-4v-10h-4l1 12-1 1h-7l2-7 2 4 1-1v-9l-5-1 1-2-4-2z" fill="#282E90"/>
<path transform="translate(625,594)" d="m0 0 5 2 12 12 7 6 5 6-1 4-5 6-5 4-6 1-8-4-4-6v-8l3-5 3-1-1-4-1-3-5-2-1-1v-5z" fill="#14158F"/>
<path transform="translate(161,187)" d="m0 0 5 1 1 3-9 11-1 3 2 1h6l7-9 4 2v6l-7 8 1 3 7 1 9-10 4 1 3 4-11 12-5 6-5-3-14-12-10-8-1-5 9-10z" fill="#12138F"/>
<path transform="translate(309,90)" d="m0 0h6l1 6-6 3-10 2 1 6 3 1 11-4 4 1 1 5-2 2-10 3-2 1 1 8 8-1 9-3 2 3-1 5-18 6h-5l-5-16-6-20v-2z" fill="#14158F"/>
<path transform="translate(661,201)" d="m0 0 5 1 7 9 5 9-4 4-4-2-6-9-5-1-1 5 7 10-1 3-6 1-7-10h-4l-3 3 1 4 5 8 2 1-2 4-4 2-9-11-4-7 1-5 14-9 11-8z" fill="#12138F"/>
<path transform="translate(697,414)" d="m0 0 17 1 4 1h9l8 1 1 1-1 16-1 7h-7l-1-2 1-3v-12h-6l-2 15-5 1-2-1v-14l-3-3-6 1-1 15-1 1h-7l1-17 1-7z" fill="#12138F"/>
<path transform="translate(101,399)" d="m0 0h9l6 4 2 4v9l-3 5-4 3-6 1-2-2v-4l5-3h2v-8l-6-2-3 4-4 11-3 3-9 1-6-4-3-6v-6l4-6 5-3h5l1 5-6 4-1 6v2h7l1-6 6-11z" fill="#11128F"/>
<path transform="translate(698,458)" d="m0 0 6 1 1 4-4 3-5 2v7l5 2 9-12 5-2 9 1 4 4 1 3v8l-4 6-3 2h-7l-2-3v-4l7-1 1-1v-7l-6-1-2 5-3 5-6 5-9-1-5-4-2-4v-10l6-7z" fill="#12138F"/>
<path transform="translate(625,166)" d="m0 0h8l7 6 2 4v6l-5 5-4-1 1-8-4-4-4-1 1 7 4 12-1 4-6 7-7 2-8-4-4-8 1-10 5-2 3 2v9l1 3 6 1 1-1-1-8-2-6v-10z" fill="#11128F"/>
<path transform="translate(392,76)" d="m0 0h5l1 4v22l2 6 5 1 3-3 1-29 1-1h5l1 1 1 27-2 8-4 4-7 2-7-1-5-6-2-7v-26z" fill="#13158F"/>
<path transform="translate(259,110)" d="m0 0 6 1 5 4-1 7h-2v2h-2l-3-7h-3l-3 6h-2l3 3h19l4 6 1 3v7l-2 4-6 4h-10l-6-4-1-4 4-3 3 1 1 2h7l2-1v-7l-5-1-4 1h-8l-5-3-3-4v-9l4-5z" fill="#13148F"/>
<path transform="translate(355,79)" d="m0 0 7 2 4 6v5l-7-1-5-3-5 2-1 3v9l4 9 1 1 7-1 3-6 1-1h6l-1 8-3 5-4 3-9 2-6-4-5-7-2-6v-15l4-7 5-3z" fill="#13148F"/>
<path transform="translate(371,464)" d="m0 0 4 4 6 11 8 10 15 23 4 5v2h-10l-10-1-3-7-8-24-7-20z" fill="#F1212B"/>
<path transform="translate(708,365)" d="m0 0h16l6 3 4 5 1 2v9l-3 5-6 3-5-1 1-5 5-4v-6l-3-2-10-1-10 2-1 1v7l5 3 3 2-1 5h-7l-6-4-3-6v-8l6-7z" fill="#11138F"/>
<path transform="translate(341,255)" d="m0 0 5 1 2 4 6 4 1 4-11 36-3 10-3 3v-57l1-4z" fill="#F1212B"/>
<path transform="translate(93,321)" d="m0 0h7l1 1v5l-8 4v5l5 5 7 2h7l5-3v-6l-5-3 1-5 2-2 4 1 6 7 1 2v7l-5 7-6 3h-11l-10-3-8-7-1-2v-11l5-5z" fill="#11138F"/>
<path transform="translate(117,492)" d="m0 0h11l5 4 1 3v10l-7 8-5 3-8 2h-10l-7-4-4-7 1-7 4-6 6-1 2 4-4 6 1 6 2 1h8l10-4 3-3-1-7-9-3-1-4z" fill="#11128F"/>
<path transform="translate(324,409)" d="m0 0 22 3-1 7-2 9-2 5h-2v2h-16l-5-1 1-10z" fill="#FEFDFD"/>
<path transform="translate(713,285)" d="m0 0 3 1v7l-20 12h-2v2l12-1h15l2 4v3l-10 1h-26l-7-1-1-4 5-5 10-7 11-7z" fill="#11128F"/>
<path transform="translate(368,304)" d="m0 0h4l-3 9-18 42h-2l-1-7 1-6 1-22 1-10z" fill="#F1212B"/>
<path transform="translate(318,289)" d="m0 0 8 1 9 6v8l-6 36-3 3-3-17-5-33z" fill="#F1212B"/>
<path transform="translate(304,376)" d="m0 0h5l7 3 7 1 1 4-4 20-9-2-12-5-1-2 5-18z" fill="#FEFDFD"/>
<path transform="translate(106,268)" d="m0 0 5 5 9 11 9 6 9 4v5l-5 1-13-4-24 2-1-3 2-5 11-1 3-2-4-6-4-4 1-5z" fill="#13158F"/>
<path transform="translate(329,383)" d="m0 0 15 1 3 1v21l-1 1h-10l-10-2-1-1v-8l3-12z" fill="#FEFDFD"/>
<path transform="translate(370,407)" d="m0 0h2v11l-5 8-12 6-9 3-4-1 4-5 4-16 15-5z" fill="#FEFDFD"/>
<path transform="translate(517,97)" d="m0 0 8 1 15 5 4 2-1 5-5 1-6-1-5 14-5 11-2 5-5-2-1-5 7-19 3-8-7-3z" fill="#12138F"/>
<path transform="translate(560,116)" d="m0 0 6 1 2 2v9l-1 7 7-4 4-3 7-1 3 1-2 4-16 11-5 5-7 10-4-1-2-4 6-9 1-3 1-11z" fill="#12138F"/>
<path transform="translate(422,696)" d="m0 0h5l1 26v20h-7l-1-1v-29l-10 3 1-7 7-7z" fill="#292F8F"/>
<path transform="translate(649,561)" d="m0 0 5 1 17 12 11 8 1 4-2 2-4-1-11-7-12-8-3-1-2 7-4 5-6-1-1-4 8-11z" fill="#13148F"/>
<path transform="translate(671,525)" d="m0 0 5 2 28 15 2 3-1 3h-6l-25-13-2 1-3 11h-8l1-7 6-12z" fill="#12138F"/>
<path transform="translate(360,380)" d="m0 0 4 2 3 4 4 10-1 5-15 7-4 1 1-25z" fill="#FEFDFD"/>
<path transform="translate(368,436)" d="m0 0 1 2-2 4h2v2l-5 4-2 3h-2l-1 3-2 1 1 4 7 10 1 5-13-4-5-3v-5l-13 3-6 2-1-2 20-8v-9l3 1v2l5-2 5-6 3-1z" fill="#2C2C8D"/>
<path transform="translate(346,412)" d="m0 0h1v17l-4 5 9-2 12-5 4-2-1 4 1 3-8 4-16 5-9 13-7 7-3 4h-2l1-5 10-13 4-6 1-8h2l1-5zm23 15 2 1z" fill="#292F8F"/>
<path transform="translate(312,361)" d="m0 0 2 2-6 9 3 2 13 3 1-3-1 5-2 1-10-1-3-2h-5l-5 19 14 6v4l-9-3-4-2h-3l-2 20-2-4v-20l-6-4 1-3 4 2 4 1 3-15 4-8 4-5z" fill="#282E8F"/>
<path transform="translate(492,88)" d="m0 0h6l2 3-6 20-5 17h-7l-1-3 9-31z" fill="#13148F"/>
<path transform="translate(275,413)" d="m0 0 4 2 12 9 18 7 5 1v2l3-1 6 1 17 1-1 4-1 1h-9l-15-2-16-5-10-5-11-9-3-3z" fill="#262C8F"/>
<path transform="translate(390,696)" d="m0 0h8l5 5 2 5v16l-2 1v-3h-2l-1 5h-1v-16h-2l-2-4h-3l-1 3-2 1-2 6-4 1v-10l4-8z" fill="#12138F"/>
<path transform="translate(722,333)" d="m0 0h7l1 5-2 2-33 8h-5l-1-1v-5l9-3z" fill="#12138F"/>
<path transform="translate(343,354)" d="m0 0 5 1 11 7 4 3 2-2 4 4 4 14 1 4-2 2-2-5h-2l-2-5-1-4-6-4-1 3 1 5-4 2-5-1-3-8-1-6 5 2h4l1-2-5-2-2-3-6-3z" fill="#292E8F"/>
<path transform="translate(181,606)" d="m0 0h8l4 4-7 8-9 9-4 1-3-5-1-6 7-8z" fill="#FEFDFD"/>
<path transform="translate(323,356)" d="m0 0 5 1-2 12-2 8-9-1-8-3 5-9 7-7z" fill="#FEFDFD"/>
<path transform="translate(338,529)" d="m0 0h20l6 1-4 6-6-2 1 13h-8l-2-11v10l-4-3z" fill="#23288F"/>
<path transform="translate(378,396)" d="m0 0h1l1 10-1 13-7 18-3 5h-2v-3l-5 5 2-5 3-7-1-4 5-10 1-12 2 4v-8h3z" fill="#13158F"/>
<path transform="translate(359,726)" d="m0 0 1 3-3 6 4-2 3-3h2v-2h2v3l9 1 1 1v9h-23l-2-4 3-8z" fill="#2A3090"/>
<path transform="translate(227,656)" d="m0 0 3 1 1 6h6l2 1-1 5-2 2-1 7h-3l-2-6-4 5-3 1-3-9-1-5 1-1h5z" fill="#13148F"/>
<path transform="translate(333,359)" d="m0 0 5 3 4 5 2 5 1 7-1 1h-14l-1-5 3-15z" fill="#FEFDFD"/>
<path transform="translate(587,656)" d="m0 0h4l1 7 7 1v4l-3 1v9h-3l-4-6-5 7-2-1v-7l-4-4 2-4 6 1z" fill="#15178F"/>
<path transform="translate(517,97)" d="m0 0 8 1 15 5 4 2-1 5-5 1-6-1-2 3v-4l-5 1-1-4-7-3z" fill="#12138F"/>
<path transform="translate(392,704)" d="m0 0 4 1 2 4v18l-1 6h-5l-2-4v-21z" fill="#FEFDFD"/>
<path transform="translate(370,529)" d="m0 0h25v1h-16v2l-3 3v16l-3 1-5-5v-12l-2-5z" fill="#16188F"/>
<path transform="translate(355,455)" d="m0 0 3 4 7 10 1 5-13-4-5-3v-7z" fill="#F1212B"/>
<path transform="translate(464,530)" d="m0 0h12l-1 9 1 9 2 5-5-1-6-4v-13h2v-4l-4 1z" fill="#262B8F"/>
<path transform="translate(108,450)" d="m0 0 5 1 2 3 1 9-5 2h-5l-2-3v-8z" fill="#FEFDFD"/>
<path transform="translate(310,433)" d="m0 0 13 1 17 1-1 4-1 1h-9l-15-2-5-2-1-2z" fill="#15178F"/>
<path transform="translate(379,532)" d="m0 0h1l2 11 2-2 2 3-1-11 6-1 2 2-2 1-1 15-5 1-5-5-2-3 1-2z" fill="#282D8F"/>
<path transform="translate(444,696)" d="m0 0h15l1 1v8l-1 1h-13v-3l1-4 1-1z" fill="#272C8F"/>
<path transform="translate(359,375)" d="m0 0 1 3h2v2l-9 4-1 19-3-1-2 3v-20l2-3-2-2h3l1-2 8-1z" fill="#2A3090"/>
<path transform="translate(145,244)" d="m0 0 6 1 2 2-1 8-3 4-6-2-1-1v-7z" fill="#FEFDFD"/>
<path transform="translate(439,93)" d="m0 0h1l3 12 2 3v10l-3 1-5-1v-10z" fill="#2A3090"/>
<path transform="translate(685,250)" d="m0 0 5 1 4 8-1 4-7 1-4-4-1-5 2-4z" fill="#FEFDFD"/>
<path transform="translate(196,162)" d="m0 0 5 1 2 2v5l-3 3-7 1-3-2-1-5 4-4z" fill="#FEFDFD"/>
<path transform="translate(339,438)" d="m0 0 7 1-6 8-7 9-8 9h-2l1-5 10-13 4-6z" fill="#292F8F"/>
<path transform="translate(448,86)" d="m0 0 8 1 4 2v5l-2 2h-10l-1-1v-8z" fill="#FEFDFD"/>
<path transform="translate(405,531)" d="m0 0 6 1v6 2l2-1v8l-3 1-8-2v-2h2v-11z" fill="#292E8F"/>
<path transform="translate(139,575)" d="m0 0 6 1 3 3v6l-5 3-5-3-1-1v-7z" fill="#FEFDFD"/>
<path transform="translate(636,615)" d="m0 0 6 2 2 2v5l-5 3-6-1-1-1v-6z" fill="#FEFDFD"/>
<path transform="translate(346,364)" d="m0 0 5 2 7 6 1 5-4 2-5-1-3-8z" fill="#FEFDFD"/>
<path transform="translate(90,455)" d="m0 0h6l3 5v5l-3 2-7-1v-9z" fill="#FEFDFD"/>
<path transform="translate(378,396)" d="m0 0h1l1 10-1 10-2 3-3-1-1-4-1 3v-11l2 4v-8h3z" fill="#282D8F"/>
<path transform="translate(350,390)" d="m0 0h1v15l-1 6 3 1-3 1-2 12-2 2v-15l-3-2h2v-2h2l1-17z" fill="#0F108F"/>
<path transform="translate(379,530)" d="m0 0h16l-2 1v2h-8l2 12-6-2z" fill="#0E0F8F"/>
<path transform="translate(131,238)" d="m0 0h5l2 2-1 5-3 4h-5l-2-2 1-6z" fill="#FEFDFD"/>
<path transform="translate(401,529)" d="m0 0h9l-1 2h-4l-1 13-1 1 2 2h-5v-15l-7 1v-2z" fill="#1A1C8F"/>
<path transform="translate(289,427)" d="m0 0 6 1h6l13 4-4 2-1 2-9-2-10-5z" fill="#15178F"/>
<path transform="translate(438,728)" d="m0 0h6l2 6h6l-3 2-4-1-4 5-4-5v-6z" fill="#2A3090"/>
<path transform="translate(360,697)" d="m0 0 3 1-3 3h-2l2 3 4-1 2 2-4 5-6 1-2-1 1-6 4-6z" fill="#292F8F"/>
<path transform="translate(367,425)" d="m0 0v3l1 4-8 4-6-2-2-2 12-5zm2 2 2 1z" fill="#2C3292"/>
<path transform="translate(441,698)" d="m0 0 2 2-1 4v14h-3l1 1h5l-3 2h-4v-9z" fill="#2A3090"/>
<path transform="translate(422,696)" d="m0 0h5l-1 13-5-1-1-3h2l-2-3 1-5z" fill="#10108F"/>
<path transform="translate(350,433)" d="m0 0 9 1-2 3-16 3-1-2h2v-2z" fill="#1C1F8F"/>
<path transform="translate(338,529)" d="m0 0h12l-1 3h-2v-2h-7l2 2 3 2v12l-4-3z" fill="#2A3090"/>
<path transform="translate(320,411)" d="m0 0 3 1-2 9-3 13-4-1 5-17z" fill="#2A3090"/>
<path transform="translate(312,361)" d="m0 0 2 2-6 9-3 1-2 2-1-3 5-7z" fill="#22278F"/>
<path transform="translate(329,368)" d="m0 0h1v14l-5 1v-2l-3-1 3-6 3-3z" fill="#0E0E8F"/>
<path transform="translate(591,663)" d="m0 0 8 1v4l-3 1-1 5-3-4z" fill="#282E8F"/>
<path transform="translate(524,105)" d="m0 0h5v2l7-1 2 4h-6l-2 3v-4l-5 1z" fill="#282D8F"/>
<path transform="translate(464,530)" d="m0 0h12l-2 5-2 2-5-1 2-1v-4l-4 1z" fill="#0E0F8F"/>
<path transform="translate(312,350)" d="m0 0h22l3 1v2l-9 1-1-3h-15z" fill="#2A3090"/>
<path transform="translate(387,532)" d="m0 0 6 1-2 2-1 5h-2l1 4-3-3-1-8z" fill="#8C8FC2"/>
<path transform="translate(340,530)" d="m0 0h7v2h2l1-2-1 5-1 6-2-2-1-6h-5z" fill="#0F108F"/>
<path transform="translate(405,532)" d="m0 0 3 1v11l-2 1-2-5v-7z" fill="#FEFDFD"/>
<path transform="translate(420,534)" d="m0 0 2 2 4-2h1v5l-1-2h-2v8l-3-1z" fill="#2A3090"/>
<path transform="translate(350,405)" d="m0 0 2 3 6-1v2h5l-3 2-7 1-3-1z" fill="#2A3090"/>
<path transform="translate(305,399)" d="m0 0 6 2 2 2v3l-12-4v-2z" fill="#2A3090"/>
<path transform="translate(580,663)" d="m0 0 7 1v2l-5 2 2 1v7h-1l-2-6-3-3z" fill="#2A3090"/>
<path transform="translate(225,661)" d="m0 0 2 3-1 4-2-3-2 3 2 5-2 2-2-6-1-5 1-1h5z" fill="#2A3090"/>
<path transform="translate(427,533)" d="m0 0 4 1v9l-3 2-1-5z" fill="#0C0C8F"/>
<path transform="translate(298,428)" d="m0 0 5 1 11 3-4 2-7-1-3-1-4-3z" fill="#292F8F"/>
<path transform="translate(312,403)" d="m0 0h5l1 1h6l-1 4-9-1z" fill="#11128F"/>
<path transform="translate(326,364)" d="m0 0 4 1 1 5-2 1-2 3h-2z" fill="#2A3090"/>
<path transform="translate(375,543)" d="m0 0h1v8l-3 1-5-5 1-2 5 1z" fill="#2A3090"/>
<path transform="translate(476,198)" d="m0 0 18 1-2 2h-9l-3 1-6-2z" fill="#0C0C8F"/>
<path transform="translate(231,663)" d="m0 0h6l2 1-1 5-4 5-2-4 1-3h3l-5-3z" fill="#2A3090"/>
<path transform="translate(431,534)" d="m0 0h1l1 12-1 1h-7l2-7 2 4 1-1z" fill="#2A3090"/>
<path transform="translate(342,360)" d="m0 0 8 2 3 5-5-2-2-1-1 2-2-2z" fill="#292E8F"/>
<path transform="translate(399,194)" d="m0 0h16l1 2-7 1-10-2z" fill="#0C0C8F"/>
<path transform="translate(359,375)" d="m0 0 1 3h2v2l-3 2-6-1 2-1v-2l4-1z" fill="#23278F"/>
<path transform="translate(358,538)" d="m0 0 4 4-1 4-4-1z" fill="#21268F"/>
<path transform="translate(345,435)" d="m0 0h5l-1 4-8 1-1-2h2v-2z" fill="#0F0F8F"/>
<path transform="translate(288,424)" d="m0 0 5 1 5 2-3 2-7-1z" fill="#24298F"/>
<path transform="translate(585,303)" d="m0 0h1l1 20-2 4-1-6z" fill="#0E0E8F"/>
<path transform="translate(484,115)" d="m0 0 3 1-2 10-3-1z" fill="#282E8F"/>
<path transform="translate(455,535)" d="m0 0h2l1 9-3 1-1-9z" fill="#FEFDFD"/>
</svg>
